<svg width="7" height="11" viewBox="0 0 7 11" fill="none" xmlns="http://www.w3.org/2000/svg">
<path d="M0 5.29007C0 5.49881 0.0775321 5.67773 0.244524 5.8328L4.88452 10.3774C5.01573 10.5086 5.18272 10.5801 5.37953 10.5801C5.77316 10.5801 6.08925 10.27 6.08925 9.87043C6.08925 9.67362 6.00575 9.50066 5.87455 9.36349L1.69378 5.29007L5.87455 1.21666C6.00575 1.07949 6.08925 0.900565 6.08925 0.709717C6.08925 0.310128 5.77316 0 5.37953 0C5.18272 0 5.01573 0.0715681 4.88452 0.202776L0.244524 4.74138C0.0775321 4.90241 0 5.08133 0 5.29007Z" fill="white"/>
</svg>
